# xmcd
#
# Track frame offsets: 
#        150
#        17932
#        28875
#        43255
#        56242
#        68622
#        85052
#        98902
#        110685
#        120077
#        131435
#        147660
#        164677
#        178492
#        189902
#        200572
#
# Disc length: 2835 seconds
#
# Revision: 0
# Processed by: cddbd v1.5.2PL0 Copyright (c) Steve Scherf et al.
# Submitted via: ExactAudioCopy v1.3
#
DISCID=ef0b1110
DTITLE=Osborne Brothers - Detroit to Wheeling
DYEAR=2003
DGENRE=Bluegrass
TTITLE0=Shady Lane
TTITLE1=Helen
TTITLE2=I'm Old Kentucky Bound
TTITLE3=Tahoe
TTITLE4=Down In the Willow Garden
TTITLE5=Lovers Farewell
TTITLE6=Big Sandy River
TTITLE7=Mansion on the Hill
TTITLE8=Pretty Little Indian
TTITLE9=Lonesome Wind Blues
TTITLE10=Billy in the Low Ground
TTITLE11=Love and Wealth
TTITLE12=Cherokee Shuffle
TTITLE13=Down Where the River Bends
TTITLE14=Take These Chains From My Heart
TTITLE15=Foggy Mountain Breakdown
EXTD=
EXTT0=
EXTT1=
EXTT2=
EXTT3=
EXTT4=
EXTT5=
EXTT6=
EXTT7=
EXTT8=
EXTT9=
EXTT10=
EXTT11=
EXTT12=
EXTT13=
EXTT14=
EXTT15=
PLAYORDER=
